<svg xmlns="http://www.w3.org/2000/svg" version="1.1" xmlns:xlink="http://www.w3.org/1999/xlink" xmlns:svgjs="http://svgjs.dev/svgjs" width="1440" height="560" preserveAspectRatio="none" viewBox="0 0 1440 560">
    <g mask="url(&quot;#SvgjsMask1042&quot;)" fill="none">
        <path d="M-266.82 235.61C-140.19 239.53-56.05 421.76 200.49 431.61 457.02 441.46 537.78 654.97 667.79 661.05" stroke="rgba(231, 166, 70, 1)" stroke-width="2"></path>
        <path d="M-159.05 419.74C-45.61 419.95 65.12 489.74 289.28 489.74 513.45 489.74 512.49 419.65 737.61 419.74 962.73 419.83 1067.53 570.66 1185.94 572.75" stroke="rgba(231, 166, 70, 1)" stroke-width="2"></path>
        <path d="M-17.56 395.46C108.03 389.39 203.61 170.72 432.74 171.46 661.87 172.2 735.8 539.06 883.04 565.54" stroke="rgba(231, 166, 70, 1)" stroke-width="2"></path>
        <path d="M-177.52 309.43C-74.13 306.75 2.99 154.06 207.58 158.23 412.16 162.4 454.2 547.03 592.67 586.53" stroke="rgba(231, 166, 70, 1)" stroke-width="2"></path>
        <path d="M-27.81 353.4C78.42 345.31 145.6 131.97 338.1 135 530.6 138.03 565.67 544.7 704.01 593.21" stroke="rgba(231, 166, 70, 1)" stroke-width="2"></path>
    </g>
    <defs>
        <mask id="SvgjsMask1042">
            <rect width="1440" height="560" fill="#ffffff"></rect>
        </mask>
    </defs>
</svg>