<svg xmlns="http://www.w3.org/2000/svg" version="1.1" xmlns:xlink="http://www.w3.org/1999/xlink" xmlns:svgjs="http://svgjs.dev/svgjs" width="1440" height="560" preserveAspectRatio="none" viewBox="0 0 1440 560">
    <g mask="url(&quot;#SvgjsMask1022&quot;)" fill="none">
        <path d="M-61.69 383.37L-61.69 383.37" stroke="rgba(231, 166, 70, 0.6)" stroke-width="1.5"></path>
        <path d="M-61.69 383.37L57.42 351.35" stroke="rgba(231, 166, 70, 0.6)" stroke-width="1.5"></path>
        <path d="M-61.69 383.37L-54.71 533.36" stroke="rgba(231, 166, 70, 0.6)" stroke-width="1.5"></path>
        <path d="M-54.71 533.36L-54.71 533.36" stroke="rgba(231, 166, 70, 0.6)" stroke-width="1.5"></path>
        <path d="M-54.71 533.36L87.83 556.78" stroke="rgba(231, 166, 70, 0.6)" stroke-width="1.5"></path>
        <path d="M-82.75 695.61L-82.75 695.61" stroke="rgba(231, 166, 70, 0.6)" stroke-width="1.5"></path>
        <path d="M-82.75 695.61L45.94 647.79" stroke="rgba(231, 166, 70, 0.6)" stroke-width="1.5"></path>
        <path d="M-82.75 695.61L-54.71 533.36" stroke="rgba(231, 166, 70, 0.6)" stroke-width="1.5"></path>
        <path d="M-82.75 695.61L87.83 556.78" stroke="rgba(231, 166, 70, 0.6)" stroke-width="1.5"></path>
        <path d="M-82.75 695.61L-61.69 383.37" stroke="rgba(231, 166, 70, 0.6)" stroke-width="1.5"></path>
        <path d="M57.42 351.35L57.42 351.35" stroke="rgba(231, 166, 70, 0.6)" stroke-width="1.5"></path>
        <path d="M57.42 351.35L206.21 395.15" stroke="rgba(231, 166, 70, 0.6)" stroke-width="1.5"></path>
        <path d="M57.42 351.35L192.59 498.87" stroke="rgba(231, 166, 70, 0.6)" stroke-width="1.5"></path>
        <path d="M57.42 351.35L87.83 556.78" stroke="rgba(231, 166, 70, 0.6)" stroke-width="1.5"></path>
        <path d="M57.42 351.35L-54.71 533.36" stroke="rgba(231, 166, 70, 0.6)" stroke-width="1.5"></path>
        <path d="M87.83 556.78L87.83 556.78" stroke="rgba(231, 166, 70, 0.6)" stroke-width="1.5"></path>
        <path d="M87.83 556.78L45.94 647.79" stroke="rgba(231, 166, 70, 0.6)" stroke-width="1.5"></path>
        <path d="M87.83 556.78L192.59 498.87" stroke="rgba(231, 166, 70, 0.6)" stroke-width="1.5"></path>
        <path d="M45.94 647.79L45.94 647.79" stroke="rgba(231, 166, 70, 0.6)" stroke-width="1.5"></path>
        <path d="M45.94 647.79L-54.71 533.36" stroke="rgba(231, 166, 70, 0.6)" stroke-width="1.5"></path>
        <path d="M45.94 647.79L242.17 704.16" stroke="rgba(231, 166, 70, 0.6)" stroke-width="1.5"></path>
        <path d="M45.94 647.79L192.59 498.87" stroke="rgba(231, 166, 70, 0.6)" stroke-width="1.5"></path>
        <path d="M206.21 395.15L206.21 395.15" stroke="rgba(231, 166, 70, 0.6)" stroke-width="1.5"></path>
        <path d="M206.21 395.15L192.59 498.87" stroke="rgba(231, 166, 70, 0.6)" stroke-width="1.5"></path>
        <path d="M206.21 395.15L396.52 361.4" stroke="rgba(231, 166, 70, 0.6)" stroke-width="1.5"></path>
        <path d="M206.21 395.15L87.83 556.78" stroke="rgba(231, 166, 70, 0.6)" stroke-width="1.5"></path>
        <path d="M192.59 498.87L192.59 498.87" stroke="rgba(231, 166, 70, 0.6)" stroke-width="1.5"></path>
        <path d="M192.59 498.87L369.83 544.79" stroke="rgba(231, 166, 70, 0.6)" stroke-width="1.5"></path>
        <path d="M242.17 704.16L242.17 704.16" stroke="rgba(231, 166, 70, 0.6)" stroke-width="1.5"></path>
        <path d="M242.17 704.16L387.72 674.45" stroke="rgba(231, 166, 70, 0.6)" stroke-width="1.5"></path>
        <path d="M242.17 704.16L369.83 544.79" stroke="rgba(231, 166, 70, 0.6)" stroke-width="1.5"></path>
        <path d="M396.52 361.4L396.52 361.4" stroke="rgba(231, 166, 70, 0.6)" stroke-width="1.5"></path>
        <path d="M396.52 361.4L494.06 361.85" stroke="rgba(231, 166, 70, 0.6)" stroke-width="1.5"></path>
        <path d="M396.52 361.4L369.83 544.79" stroke="rgba(231, 166, 70, 0.6)" stroke-width="1.5"></path>
        <path d="M369.83 544.79L369.83 544.79" stroke="rgba(231, 166, 70, 0.6)" stroke-width="1.5"></path>
        <path d="M369.83 544.79L387.72 674.45" stroke="rgba(231, 166, 70, 0.6)" stroke-width="1.5"></path>
        <path d="M387.72 674.45L387.72 674.45" stroke="rgba(231, 166, 70, 0.6)" stroke-width="1.5"></path>
        <path d="M387.72 674.45L508.09 704.56" stroke="rgba(231, 166, 70, 0.6)" stroke-width="1.5"></path>
        <path d="M387.72 674.45L192.59 498.87" stroke="rgba(231, 166, 70, 0.6)" stroke-width="1.5"></path>
        <path d="M494.06 361.85L494.06 361.85" stroke="rgba(231, 166, 70, 0.6)" stroke-width="1.5"></path>
        <path d="M494.06 361.85L660.68 259.84" stroke="rgba(231, 166, 70, 0.6)" stroke-width="1.5"></path>
        <path d="M494.06 361.85L707.39 366.07" stroke="rgba(231, 166, 70, 0.6)" stroke-width="1.5"></path>
        <path d="M494.06 361.85L659.02 503" stroke="rgba(231, 166, 70, 0.6)" stroke-width="1.5"></path>
        <path d="M494.06 361.85L369.83 544.79" stroke="rgba(231, 166, 70, 0.6)" stroke-width="1.5"></path>
        <path d="M508.09 704.56L508.09 704.56" stroke="rgba(231, 166, 70, 0.6)" stroke-width="1.5"></path>
        <path d="M508.09 704.56L685.65 643.97" stroke="rgba(231, 166, 70, 0.6)" stroke-width="1.5"></path>
        <path d="M508.09 704.56L369.83 544.79" stroke="rgba(231, 166, 70, 0.6)" stroke-width="1.5"></path>
        <path d="M508.09 704.56L659.02 503" stroke="rgba(231, 166, 70, 0.6)" stroke-width="1.5"></path>
        <path d="M508.09 704.56L242.17 704.16" stroke="rgba(231, 166, 70, 0.6)" stroke-width="1.5"></path>
        <path d="M660.68 259.84L660.68 259.84" stroke="rgba(231, 166, 70, 0.6)" stroke-width="1.5"></path>
        <path d="M660.68 259.84L707.39 366.07" stroke="rgba(231, 166, 70, 0.6)" stroke-width="1.5"></path>
        <path d="M660.68 259.84L851.4 198.33" stroke="rgba(231, 166, 70, 0.6)" stroke-width="1.5"></path>
        <path d="M707.39 366.07L707.39 366.07" stroke="rgba(231, 166, 70, 0.6)" stroke-width="1.5"></path>
        <path d="M707.39 366.07L659.02 503" stroke="rgba(231, 166, 70, 0.6)" stroke-width="1.5"></path>
        <path d="M707.39 366.07L862.46 354.27" stroke="rgba(231, 166, 70, 0.6)" stroke-width="1.5"></path>
        <path d="M707.39 366.07L798.87 520.82" stroke="rgba(231, 166, 70, 0.6)" stroke-width="1.5"></path>
        <path d="M707.39 366.07L851.4 198.33" stroke="rgba(231, 166, 70, 0.6)" stroke-width="1.5"></path>
        <path d="M659.02 503L659.02 503" stroke="rgba(231, 166, 70, 0.6)" stroke-width="1.5"></path>
        <path d="M659.02 503L798.87 520.82" stroke="rgba(231, 166, 70, 0.6)" stroke-width="1.5"></path>
        <path d="M659.02 503L685.65 643.97" stroke="rgba(231, 166, 70, 0.6)" stroke-width="1.5"></path>
        <path d="M685.65 643.97L685.65 643.97" stroke="rgba(231, 166, 70, 0.6)" stroke-width="1.5"></path>
        <path d="M685.65 643.97L798.87 520.82" stroke="rgba(231, 166, 70, 0.6)" stroke-width="1.5"></path>
        <path d="M685.65 643.97L849.93 703.75" stroke="rgba(231, 166, 70, 0.6)" stroke-width="1.5"></path>
        <path d="M851.4 198.33L851.4 198.33" stroke="rgba(231, 166, 70, 0.6)" stroke-width="1.5"></path>
        <path d="M851.4 198.33L970.43 237.8" stroke="rgba(231, 166, 70, 0.6)" stroke-width="1.5"></path>
        <path d="M851.4 198.33L862.46 354.27" stroke="rgba(231, 166, 70, 0.6)" stroke-width="1.5"></path>
        <path d="M851.4 198.33L979.96 108.44" stroke="rgba(231, 166, 70, 0.6)" stroke-width="1.5"></path>
        <path d="M862.46 354.27L862.46 354.27" stroke="rgba(231, 166, 70, 0.6)" stroke-width="1.5"></path>
        <path d="M862.46 354.27L942.02 397.5" stroke="rgba(231, 166, 70, 0.6)" stroke-width="1.5"></path>
        <path d="M862.46 354.27L970.43 237.8" stroke="rgba(231, 166, 70, 0.6)" stroke-width="1.5"></path>
        <path d="M862.46 354.27L798.87 520.82" stroke="rgba(231, 166, 70, 0.6)" stroke-width="1.5"></path>
        <path d="M798.87 520.82L798.87 520.82" stroke="rgba(231, 166, 70, 0.6)" stroke-width="1.5"></path>
        <path d="M798.87 520.82L957.27 515.87" stroke="rgba(231, 166, 70, 0.6)" stroke-width="1.5"></path>
        <path d="M849.93 703.75L849.93 703.75" stroke="rgba(231, 166, 70, 0.6)" stroke-width="1.5"></path>
        <path d="M849.93 703.75L976.52 643.18" stroke="rgba(231, 166, 70, 0.6)" stroke-width="1.5"></path>
        <path d="M849.93 703.75L798.87 520.82" stroke="rgba(231, 166, 70, 0.6)" stroke-width="1.5"></path>
        <path d="M849.93 703.75L957.27 515.87" stroke="rgba(231, 166, 70, 0.6)" stroke-width="1.5"></path>
        <path d="M849.93 703.75L1097.66 641.63" stroke="rgba(231, 166, 70, 0.6)" stroke-width="1.5"></path>
        <path d="M989.08 -63.81L989.08 -63.81" stroke="rgba(231, 166, 70, 0.6)" stroke-width="1.5"></path>
        <path d="M989.08 -63.81L1100.81 -98.58" stroke="rgba(231, 166, 70, 0.6)" stroke-width="1.5"></path>
        <path d="M989.08 -63.81L1109.09 48.39" stroke="rgba(231, 166, 70, 0.6)" stroke-width="1.5"></path>
        <path d="M989.08 -63.81L979.96 108.44" stroke="rgba(231, 166, 70, 0.6)" stroke-width="1.5"></path>
        <path d="M979.96 108.44L979.96 108.44" stroke="rgba(231, 166, 70, 0.6)" stroke-width="1.5"></path>
        <path d="M979.96 108.44L970.43 237.8" stroke="rgba(231, 166, 70, 0.6)" stroke-width="1.5"></path>
        <path d="M979.96 108.44L1109.09 48.39" stroke="rgba(231, 166, 70, 0.6)" stroke-width="1.5"></path>
        <path d="M970.43 237.8L970.43 237.8" stroke="rgba(231, 166, 70, 0.6)" stroke-width="1.5"></path>
        <path d="M970.43 237.8L942.02 397.5" stroke="rgba(231, 166, 70, 0.6)" stroke-width="1.5"></path>
        <path d="M970.43 237.8L1136.98 208.32" stroke="rgba(231, 166, 70, 0.6)" stroke-width="1.5"></path>
        <path d="M942.02 397.5L942.02 397.5" stroke="rgba(231, 166, 70, 0.6)" stroke-width="1.5"></path>
        <path d="M942.02 397.5L957.27 515.87" stroke="rgba(231, 166, 70, 0.6)" stroke-width="1.5"></path>
        <path d="M957.27 515.87L957.27 515.87" stroke="rgba(231, 166, 70, 0.6)" stroke-width="1.5"></path>
        <path d="M957.27 515.87L976.52 643.18" stroke="rgba(231, 166, 70, 0.6)" stroke-width="1.5"></path>
        <path d="M957.27 515.87L862.46 354.27" stroke="rgba(231, 166, 70, 0.6)" stroke-width="1.5"></path>
        <path d="M976.52 643.18L976.52 643.18" stroke="rgba(231, 166, 70, 0.6)" stroke-width="1.5"></path>
        <path d="M976.52 643.18L1097.66 641.63" stroke="rgba(231, 166, 70, 0.6)" stroke-width="1.5"></path>
        <path d="M1100.81 -98.58L1100.81 -98.58" stroke="rgba(231, 166, 70, 0.6)" stroke-width="1.5"></path>
        <path d="M1100.81 -98.58L1109.09 48.39" stroke="rgba(231, 166, 70, 0.6)" stroke-width="1.5"></path>
        <path d="M1100.81 -98.58L1268 56.15" stroke="rgba(231, 166, 70, 0.6)" stroke-width="1.5"></path>
        <path d="M1100.81 -98.58L979.96 108.44" stroke="rgba(231, 166, 70, 0.6)" stroke-width="1.5"></path>
        <path d="M1100.81 -98.58L1136.98 208.32" stroke="rgba(231, 166, 70, 0.6)" stroke-width="1.5"></path>
        <path d="M1109.09 48.39L1109.09 48.39" stroke="rgba(231, 166, 70, 0.6)" stroke-width="1.5"></path>
        <path d="M1109.09 48.39L1268 56.15" stroke="rgba(231, 166, 70, 0.6)" stroke-width="1.5"></path>
        <path d="M1109.09 48.39L1136.98 208.32" stroke="rgba(231, 166, 70, 0.6)" stroke-width="1.5"></path>
        <path d="M1109.09 48.39L1257.05 210.8" stroke="rgba(231, 166, 70, 0.6)" stroke-width="1.5"></path>
        <path d="M1136.98 208.32L1136.98 208.32" stroke="rgba(231, 166, 70, 0.6)" stroke-width="1.5"></path>
        <path d="M1136.98 208.32L1257.05 210.8" stroke="rgba(231, 166, 70, 0.6)" stroke-width="1.5"></path>
        <path d="M1136.98 208.32L1160.03 384.57" stroke="rgba(231, 166, 70, 0.6)" stroke-width="1.5"></path>
        <path d="M1136.98 208.32L979.96 108.44" stroke="rgba(231, 166, 70, 0.6)" stroke-width="1.5"></path>
        <path d="M1160.03 384.57L1160.03 384.57" stroke="rgba(231, 166, 70, 0.6)" stroke-width="1.5"></path>
        <path d="M1160.03 384.57L1243.7 361.48" stroke="rgba(231, 166, 70, 0.6)" stroke-width="1.5"></path>
        <path d="M1160.03 384.57L1161.53 507.68" stroke="rgba(231, 166, 70, 0.6)" stroke-width="1.5"></path>
        <path d="M1160.03 384.57L1268.78 546.76" stroke="rgba(231, 166, 70, 0.6)" stroke-width="1.5"></path>
        <path d="M1160.03 384.57L1257.05 210.8" stroke="rgba(231, 166, 70, 0.6)" stroke-width="1.5"></path>
        <path d="M1161.53 507.68L1161.53 507.68" stroke="rgba(231, 166, 70, 0.6)" stroke-width="1.5"></path>
        <path d="M1161.53 507.68L1268.78 546.76" stroke="rgba(231, 166, 70, 0.6)" stroke-width="1.5"></path>
        <path d="M1161.53 507.68L1097.66 641.63" stroke="rgba(231, 166, 70, 0.6)" stroke-width="1.5"></path>
        <path d="M1097.66 641.63L1097.66 641.63" stroke="rgba(231, 166, 70, 0.6)" stroke-width="1.5"></path>
        <path d="M1097.66 641.63L957.27 515.87" stroke="rgba(231, 166, 70, 0.6)" stroke-width="1.5"></path>
        <path d="M1097.66 641.63L1291.52 652.72" stroke="rgba(231, 166, 70, 0.6)" stroke-width="1.5"></path>
        <path d="M1268 56.15L1268 56.15" stroke="rgba(231, 166, 70, 0.6)" stroke-width="1.5"></path>
        <path d="M1268 56.15L1257.05 210.8" stroke="rgba(231, 166, 70, 0.6)" stroke-width="1.5"></path>
        <path d="M1268 56.15L1443.2 51.33" stroke="rgba(231, 166, 70, 0.6)" stroke-width="1.5"></path>
        <path d="M1268 56.15L1136.98 208.32" stroke="rgba(231, 166, 70, 0.6)" stroke-width="1.5"></path>
        <path d="M1268 56.15L1438.38 -60.25" stroke="rgba(231, 166, 70, 0.6)" stroke-width="1.5"></path>
        <path d="M1257.05 210.8L1257.05 210.8" stroke="rgba(231, 166, 70, 0.6)" stroke-width="1.5"></path>
        <path d="M1257.05 210.8L1243.7 361.48" stroke="rgba(231, 166, 70, 0.6)" stroke-width="1.5"></path>
        <path d="M1243.7 361.48L1243.7 361.48" stroke="rgba(231, 166, 70, 0.6)" stroke-width="1.5"></path>
        <path d="M1243.7 361.48L1398.39 400.23" stroke="rgba(231, 166, 70, 0.6)" stroke-width="1.5"></path>
        <path d="M1268.78 546.76L1268.78 546.76" stroke="rgba(231, 166, 70, 0.6)" stroke-width="1.5"></path>
        <path d="M1268.78 546.76L1291.52 652.72" stroke="rgba(231, 166, 70, 0.6)" stroke-width="1.5"></path>
        <path d="M1268.78 546.76L1243.7 361.48" stroke="rgba(231, 166, 70, 0.6)" stroke-width="1.5"></path>
        <path d="M1291.52 652.72L1291.52 652.72" stroke="rgba(231, 166, 70, 0.6)" stroke-width="1.5"></path>
        <path d="M1291.52 652.72L1161.53 507.68" stroke="rgba(231, 166, 70, 0.6)" stroke-width="1.5"></path>
        <path d="M1291.52 652.72L1459.11 505.59" stroke="rgba(231, 166, 70, 0.6)" stroke-width="1.5"></path>
        <path d="M1291.52 652.72L1398.39 400.23" stroke="rgba(231, 166, 70, 0.6)" stroke-width="1.5"></path>
        <path d="M1438.38 -60.25L1438.38 -60.25" stroke="rgba(231, 166, 70, 0.6)" stroke-width="1.5"></path>
        <path d="M1438.38 -60.25L1443.2 51.33" stroke="rgba(231, 166, 70, 0.6)" stroke-width="1.5"></path>
        <path d="M1438.38 -60.25L1598.99 -106" stroke="rgba(231, 166, 70, 0.6)" stroke-width="1.5"></path>
        <path d="M1438.38 -60.25L1577.54 58.31" stroke="rgba(231, 166, 70, 0.6)" stroke-width="1.5"></path>
        <path d="M1438.38 -60.25L1426.19 227.67" stroke="rgba(231, 166, 70, 0.6)" stroke-width="1.5"></path>
        <path d="M1443.2 51.33L1443.2 51.33" stroke="rgba(231, 166, 70, 0.6)" stroke-width="1.5"></path>
        <path d="M1443.2 51.33L1577.54 58.31" stroke="rgba(231, 166, 70, 0.6)" stroke-width="1.5"></path>
        <path d="M1443.2 51.33L1426.19 227.67" stroke="rgba(231, 166, 70, 0.6)" stroke-width="1.5"></path>
        <path d="M1443.2 51.33L1564.17 234.33" stroke="rgba(231, 166, 70, 0.6)" stroke-width="1.5"></path>
        <path d="M1443.2 51.33L1598.99 -106" stroke="rgba(231, 166, 70, 0.6)" stroke-width="1.5"></path>
        <path d="M1426.19 227.67L1426.19 227.67" stroke="rgba(231, 166, 70, 0.6)" stroke-width="1.5"></path>
        <path d="M1426.19 227.67L1564.17 234.33" stroke="rgba(231, 166, 70, 0.6)" stroke-width="1.5"></path>
        <path d="M1426.19 227.67L1257.05 210.8" stroke="rgba(231, 166, 70, 0.6)" stroke-width="1.5"></path>
        <path d="M1426.19 227.67L1398.39 400.23" stroke="rgba(231, 166, 70, 0.6)" stroke-width="1.5"></path>
        <path d="M1398.39 400.23L1398.39 400.23" stroke="rgba(231, 166, 70, 0.6)" stroke-width="1.5"></path>
        <path d="M1398.39 400.23L1459.11 505.59" stroke="rgba(231, 166, 70, 0.6)" stroke-width="1.5"></path>
        <path d="M1459.11 505.59L1459.11 505.59" stroke="rgba(231, 166, 70, 0.6)" stroke-width="1.5"></path>
        <path d="M1459.11 505.59L1596.01 506.51" stroke="rgba(231, 166, 70, 0.6)" stroke-width="1.5"></path>
        <path d="M1459.11 505.59L1587.36 375.37" stroke="rgba(231, 166, 70, 0.6)" stroke-width="1.5"></path>
        <path d="M1459.11 505.59L1268.78 546.76" stroke="rgba(231, 166, 70, 0.6)" stroke-width="1.5"></path>
        <path d="M1598.99 -106L1598.99 -106" stroke="rgba(231, 166, 70, 0.6)" stroke-width="1.5"></path>
        <path d="M1598.99 -106L1577.54 58.31" stroke="rgba(231, 166, 70, 0.6)" stroke-width="1.5"></path>
        <path d="M1598.99 -106L1564.17 234.33" stroke="rgba(231, 166, 70, 0.6)" stroke-width="1.5"></path>
        <path d="M1598.99 -106L1268 56.15" stroke="rgba(231, 166, 70, 0.6)" stroke-width="1.5"></path>
        <path d="M1598.99 -106L1426.19 227.67" stroke="rgba(231, 166, 70, 0.6)" stroke-width="1.5"></path>
        <path d="M1577.54 58.31L1577.54 58.31" stroke="rgba(231, 166, 70, 0.6)" stroke-width="1.5"></path>
        <path d="M1564.17 234.33L1564.17 234.33" stroke="rgba(231, 166, 70, 0.6)" stroke-width="1.5"></path>
        <path d="M1564.17 234.33L1587.36 375.37" stroke="rgba(231, 166, 70, 0.6)" stroke-width="1.5"></path>
        <path d="M1564.17 234.33L1577.54 58.31" stroke="rgba(231, 166, 70, 0.6)" stroke-width="1.5"></path>
        <path d="M1587.36 375.37L1587.36 375.37" stroke="rgba(231, 166, 70, 0.6)" stroke-width="1.5"></path>
        <path d="M1587.36 375.37L1596.01 506.51" stroke="rgba(231, 166, 70, 0.6)" stroke-width="1.5"></path>
        <path d="M1596.01 506.51L1596.01 506.51" stroke="rgba(231, 166, 70, 0.6)" stroke-width="1.5"></path>
        <path d="M1596.01 506.51L1602.21 710.46" stroke="rgba(231, 166, 70, 0.6)" stroke-width="1.5"></path>
        <path d="M1596.01 506.51L1398.39 400.23" stroke="rgba(231, 166, 70, 0.6)" stroke-width="1.5"></path>
        <path d="M1596.01 506.51L1564.17 234.33" stroke="rgba(231, 166, 70, 0.6)" stroke-width="1.5"></path>
        <path d="M1602.21 710.46L1602.21 710.46" stroke="rgba(231, 166, 70, 0.6)" stroke-width="1.5"></path>
        <path d="M1602.21 710.46L1459.11 505.59" stroke="rgba(231, 166, 70, 0.6)" stroke-width="1.5"></path>
        <path d="M1602.21 710.46L1291.52 652.72" stroke="rgba(231, 166, 70, 0.6)" stroke-width="1.5"></path>
        <path d="M1602.21 710.46L1587.36 375.37" stroke="rgba(231, 166, 70, 0.6)" stroke-width="1.5"></path>
        <path d="M1602.21 710.46L1398.39 400.23" stroke="rgba(231, 166, 70, 0.6)" stroke-width="1.5"></path>
        <path d="M1602.21 710.46L1268.78 546.76" stroke="rgba(231, 166, 70, 0.6)" stroke-width="1.5"></path>
        <circle r="5" cx="-61.69" cy="383.37" fill="rgba(231, 166, 70, 0.6)"></circle>
        <circle r="5" cx="-54.71" cy="533.36" fill="rgba(231, 166, 70, 0.6)"></circle>
        <circle r="5" cx="-82.75" cy="695.61" fill="rgba(231, 166, 70, 0.6)"></circle>
        <circle r="5" cx="57.42" cy="351.35" fill="rgba(231, 166, 70, 0.6)"></circle>
        <circle r="5" cx="87.83" cy="556.78" fill="rgba(231, 166, 70, 0.6)"></circle>
        <circle r="5" cx="45.94" cy="647.79" fill="rgba(231, 166, 70, 0.6)"></circle>
        <circle r="5" cx="206.21" cy="395.15" fill="rgba(231, 166, 70, 0.6)"></circle>
        <circle r="5" cx="192.59" cy="498.87" fill="rgba(231, 166, 70, 0.6)"></circle>
        <circle r="5" cx="242.17" cy="704.16" fill="rgba(231, 166, 70, 0.6)"></circle>
        <circle r="5" cx="396.52" cy="361.4" fill="rgba(231, 166, 70, 0.6)"></circle>
        <circle r="5" cx="369.83" cy="544.79" fill="rgba(231, 166, 70, 0.6)"></circle>
        <circle r="5" cx="387.72" cy="674.45" fill="rgba(231, 166, 70, 0.6)"></circle>
        <circle r="5" cx="494.06" cy="361.85" fill="rgba(231, 166, 70, 0.6)"></circle>
        <circle r="5" cx="508.09" cy="704.56" fill="rgba(231, 166, 70, 0.6)"></circle>
        <circle r="5" cx="660.68" cy="259.84" fill="rgba(231, 166, 70, 0.6)"></circle>
        <circle r="5" cx="707.39" cy="366.07" fill="rgba(231, 166, 70, 0.6)"></circle>
        <circle r="5" cx="659.02" cy="503" fill="rgba(231, 166, 70, 0.6)"></circle>
        <circle r="5" cx="685.65" cy="643.97" fill="rgba(231, 166, 70, 0.6)"></circle>
        <circle r="5" cx="851.4" cy="198.33" fill="rgba(231, 166, 70, 0.6)"></circle>
        <circle r="5" cx="862.46" cy="354.27" fill="rgba(231, 166, 70, 0.6)"></circle>
        <circle r="5" cx="798.87" cy="520.82" fill="rgba(231, 166, 70, 0.6)"></circle>
        <circle r="5" cx="849.93" cy="703.75" fill="rgba(231, 166, 70, 0.6)"></circle>
        <circle r="5" cx="989.08" cy="-63.81" fill="rgba(231, 166, 70, 0.6)"></circle>
        <circle r="5" cx="979.96" cy="108.44" fill="rgba(231, 166, 70, 0.6)"></circle>
        <circle r="5" cx="970.43" cy="237.8" fill="rgba(231, 166, 70, 0.6)"></circle>
        <circle r="5" cx="942.02" cy="397.5" fill="rgba(231, 166, 70, 0.6)"></circle>
        <circle r="5" cx="957.27" cy="515.87" fill="rgba(231, 166, 70, 0.6)"></circle>
        <circle r="5" cx="976.52" cy="643.18" fill="rgba(231, 166, 70, 0.6)"></circle>
        <circle r="5" cx="1100.81" cy="-98.58" fill="rgba(231, 166, 70, 0.6)"></circle>
        <circle r="5" cx="1109.09" cy="48.39" fill="rgba(231, 166, 70, 0.6)"></circle>
        <circle r="5" cx="1136.98" cy="208.32" fill="rgba(231, 166, 70, 0.6)"></circle>
        <circle r="5" cx="1160.03" cy="384.57" fill="rgba(231, 166, 70, 0.6)"></circle>
        <circle r="5" cx="1161.53" cy="507.68" fill="rgba(231, 166, 70, 0.6)"></circle>
        <circle r="5" cx="1097.66" cy="641.63" fill="rgba(231, 166, 70, 0.6)"></circle>
        <circle r="5" cx="1268" cy="56.15" fill="rgba(231, 166, 70, 0.6)"></circle>
        <circle r="5" cx="1257.05" cy="210.8" fill="rgba(231, 166, 70, 0.6)"></circle>
        <circle r="5" cx="1243.7" cy="361.48" fill="rgba(231, 166, 70, 0.6)"></circle>
        <circle r="5" cx="1268.78" cy="546.76" fill="rgba(231, 166, 70, 0.6)"></circle>
        <circle r="5" cx="1291.52" cy="652.72" fill="rgba(231, 166, 70, 0.6)"></circle>
        <circle r="5" cx="1438.38" cy="-60.25" fill="rgba(231, 166, 70, 0.6)"></circle>
        <circle r="5" cx="1443.2" cy="51.33" fill="rgba(231, 166, 70, 0.6)"></circle>
        <circle r="5" cx="1426.19" cy="227.67" fill="rgba(231, 166, 70, 0.6)"></circle>
        <circle r="5" cx="1398.39" cy="400.23" fill="rgba(231, 166, 70, 0.6)"></circle>
        <circle r="5" cx="1459.11" cy="505.59" fill="rgba(231, 166, 70, 0.6)"></circle>
        <circle r="5" cx="1598.99" cy="-106" fill="rgba(231, 166, 70, 0.6)"></circle>
        <circle r="5" cx="1577.54" cy="58.31" fill="rgba(231, 166, 70, 0.6)"></circle>
        <circle r="5" cx="1564.17" cy="234.33" fill="rgba(231, 166, 70, 0.6)"></circle>
        <circle r="5" cx="1587.36" cy="375.37" fill="rgba(231, 166, 70, 0.6)"></circle>
        <circle r="5" cx="1596.01" cy="506.51" fill="rgba(231, 166, 70, 0.6)"></circle>
        <circle r="5" cx="1602.21" cy="710.46" fill="rgba(231, 166, 70, 0.6)"></circle>
        <path d="M643.18 495.12L643.18 495.12" stroke="hsl(35.80000000000001, 77%, 76.7%)" stroke-width="1.5"></path>
        <path d="M643.18 495.12L492.19 539.52" stroke="hsl(35.80000000000001, 77%, 76.7%)" stroke-width="1.5"></path>
        <path d="M643.18 495.12L639.48 658.44" stroke="hsl(35.80000000000001, 77%, 76.7%)" stroke-width="1.5"></path>
        <path d="M643.18 495.12L798.7 553.9" stroke="hsl(35.80000000000001, 77%, 76.7%)" stroke-width="1.5"></path>
        <path d="M798.7 553.9L798.7 553.9" stroke="hsl(35.80000000000001, 77%, 76.7%)" stroke-width="1.5"></path>
        <path d="M798.7 553.9L816.6 662.85" stroke="hsl(35.80000000000001, 77%, 76.7%)" stroke-width="1.5"></path>
        <path d="M798.7 553.9L802.83 401.99" stroke="hsl(35.80000000000001, 77%, 76.7%)" stroke-width="1.5"></path>
        <path d="M1311.32 215.96L1311.32 215.96" stroke="hsl(35.80000000000001, 77%, 76.7%)" stroke-width="1.5"></path>
        <path d="M1311.32 215.96L1422.78 232.15" stroke="hsl(35.80000000000001, 77%, 76.7%)" stroke-width="1.5"></path>
        <path d="M1311.32 215.96L1294.85 53.06" stroke="hsl(35.80000000000001, 77%, 76.7%)" stroke-width="1.5"></path>
        <path d="M1311.32 215.96L1389.65 60.63" stroke="hsl(35.80000000000001, 77%, 76.7%)" stroke-width="1.5"></path>
        <path d="M1311.32 215.96L1304.81 405.31" stroke="hsl(35.80000000000001, 77%, 76.7%)" stroke-width="1.5"></path>
        <path d="M1311.32 215.96L1121.85 231.32" stroke="hsl(35.80000000000001, 77%, 76.7%)" stroke-width="1.5"></path>
        <path d="M1311.32 215.96L1389.08 397.57" stroke="hsl(35.80000000000001, 77%, 76.7%)" stroke-width="1.5"></path>
        <path d="M1389.65 60.63L1389.65 60.63" stroke="hsl(35.80000000000001, 77%, 76.7%)" stroke-width="1.5"></path>
        <path d="M1389.65 60.63L1294.85 53.06" stroke="hsl(35.80000000000001, 77%, 76.7%)" stroke-width="1.5"></path>
        <path d="M1389.65 60.63L1405.61 -62.85" stroke="hsl(35.80000000000001, 77%, 76.7%)" stroke-width="1.5"></path>
        <path d="M1389.65 60.63L1422.78 232.15" stroke="hsl(35.80000000000001, 77%, 76.7%)" stroke-width="1.5"></path>
        <path d="M1414.24 488.76L1414.24 488.76" stroke="hsl(35.80000000000001, 77%, 76.7%)" stroke-width="1.5"></path>
        <path d="M1414.24 488.76L1389.08 397.57" stroke="hsl(35.80000000000001, 77%, 76.7%)" stroke-width="1.5"></path>
        <path d="M1414.24 488.76L1304.81 405.31" stroke="hsl(35.80000000000001, 77%, 76.7%)" stroke-width="1.5"></path>
        <path d="M1414.24 488.76L1598.88 527.71" stroke="hsl(35.80000000000001, 77%, 76.7%)" stroke-width="1.5"></path>
        <path d="M1414.24 488.76L1573.9 360.46" stroke="hsl(35.80000000000001, 77%, 76.7%)" stroke-width="1.5"></path>
        <path d="M1414.24 488.76L1441.16 707.34" stroke="hsl(35.80000000000001, 77%, 76.7%)" stroke-width="1.5"></path>
        <path d="M1414.24 488.76L1553.27 697.33" stroke="hsl(35.80000000000001, 77%, 76.7%)" stroke-width="1.5"></path>
        <path d="M1559.23 255.58L1559.23 255.58" stroke="hsl(35.80000000000001, 77%, 76.7%)" stroke-width="1.5"></path>
        <path d="M1559.23 255.58L1573.9 360.46" stroke="hsl(35.80000000000001, 77%, 76.7%)" stroke-width="1.5"></path>
        <path d="M1559.23 255.58L1422.78 232.15" stroke="hsl(35.80000000000001, 77%, 76.7%)" stroke-width="1.5"></path>
        <path d="M1559.23 255.58L1605.2 102.61" stroke="hsl(35.80000000000001, 77%, 76.7%)" stroke-width="1.5"></path>
        <path d="M-44.67 525.05L-44.67 525.05" stroke="hsl(35.80000000000001, 77%, 76.7%)" stroke-width="1.5"></path>
        <path d="M-44.67 525.05L52.77 542.32" stroke="hsl(35.80000000000001, 77%, 76.7%)" stroke-width="1.5"></path>
        <path d="M-44.67 525.05L-48.06 662.7" stroke="hsl(35.80000000000001, 77%, 76.7%)" stroke-width="1.5"></path>
        <path d="M-44.67 525.05L85.93 654.17" stroke="hsl(35.80000000000001, 77%, 76.7%)" stroke-width="1.5"></path>
        <path d="M-44.67 525.05L247.6 506.68" stroke="hsl(35.80000000000001, 77%, 76.7%)" stroke-width="1.5"></path>
        <path d="M-48.06 662.7L-48.06 662.7" stroke="hsl(35.80000000000001, 77%, 76.7%)" stroke-width="1.5"></path>
        <path d="M-48.06 662.7L85.93 654.17" stroke="hsl(35.80000000000001, 77%, 76.7%)" stroke-width="1.5"></path>
        <path d="M52.77 542.32L52.77 542.32" stroke="hsl(35.80000000000001, 77%, 76.7%)" stroke-width="1.5"></path>
        <path d="M52.77 542.32L85.93 654.17" stroke="hsl(35.80000000000001, 77%, 76.7%)" stroke-width="1.5"></path>
        <path d="M52.77 542.32L-48.06 662.7" stroke="hsl(35.80000000000001, 77%, 76.7%)" stroke-width="1.5"></path>
        <path d="M85.93 654.17L85.93 654.17" stroke="hsl(35.80000000000001, 77%, 76.7%)" stroke-width="1.5"></path>
        <path d="M85.93 654.17L247.6 506.68" stroke="hsl(35.80000000000001, 77%, 76.7%)" stroke-width="1.5"></path>
        <path d="M85.93 654.17L339.22 672.67" stroke="hsl(35.80000000000001, 77%, 76.7%)" stroke-width="1.5"></path>
        <path d="M85.93 654.17L365.09 487.81" stroke="hsl(35.80000000000001, 77%, 76.7%)" stroke-width="1.5"></path>
        <path d="M247.6 506.68L247.6 506.68" stroke="hsl(35.80000000000001, 77%, 76.7%)" stroke-width="1.5"></path>
        <path d="M247.6 506.68L365.09 487.81" stroke="hsl(35.80000000000001, 77%, 76.7%)" stroke-width="1.5"></path>
        <path d="M247.6 506.68L339.22 672.67" stroke="hsl(35.80000000000001, 77%, 76.7%)" stroke-width="1.5"></path>
        <path d="M365.09 487.81L365.09 487.81" stroke="hsl(35.80000000000001, 77%, 76.7%)" stroke-width="1.5"></path>
        <path d="M365.09 487.81L492.19 539.52" stroke="hsl(35.80000000000001, 77%, 76.7%)" stroke-width="1.5"></path>
        <path d="M365.09 487.81L339.22 672.67" stroke="hsl(35.80000000000001, 77%, 76.7%)" stroke-width="1.5"></path>
        <path d="M365.09 487.81L499.85 665.42" stroke="hsl(35.80000000000001, 77%, 76.7%)" stroke-width="1.5"></path>
        <path d="M365.09 487.81L643.18 495.12" stroke="hsl(35.80000000000001, 77%, 76.7%)" stroke-width="1.5"></path>
        <path d="M339.22 672.67L339.22 672.67" stroke="hsl(35.80000000000001, 77%, 76.7%)" stroke-width="1.5"></path>
        <path d="M339.22 672.67L499.85 665.42" stroke="hsl(35.80000000000001, 77%, 76.7%)" stroke-width="1.5"></path>
        <path d="M339.22 672.67L492.19 539.52" stroke="hsl(35.80000000000001, 77%, 76.7%)" stroke-width="1.5"></path>
        <path d="M492.19 539.52L492.19 539.52" stroke="hsl(35.80000000000001, 77%, 76.7%)" stroke-width="1.5"></path>
        <path d="M492.19 539.52L499.85 665.42" stroke="hsl(35.80000000000001, 77%, 76.7%)" stroke-width="1.5"></path>
        <path d="M492.19 539.52L639.48 658.44" stroke="hsl(35.80000000000001, 77%, 76.7%)" stroke-width="1.5"></path>
        <path d="M499.85 665.42L499.85 665.42" stroke="hsl(35.80000000000001, 77%, 76.7%)" stroke-width="1.5"></path>
        <path d="M499.85 665.42L639.48 658.44" stroke="hsl(35.80000000000001, 77%, 76.7%)" stroke-width="1.5"></path>
        <path d="M499.85 665.42L643.18 495.12" stroke="hsl(35.80000000000001, 77%, 76.7%)" stroke-width="1.5"></path>
        <path d="M639.48 658.44L639.48 658.44" stroke="hsl(35.80000000000001, 77%, 76.7%)" stroke-width="1.5"></path>
        <path d="M639.48 658.44L816.6 662.85" stroke="hsl(35.80000000000001, 77%, 76.7%)" stroke-width="1.5"></path>
        <path d="M639.48 658.44L798.7 553.9" stroke="hsl(35.80000000000001, 77%, 76.7%)" stroke-width="1.5"></path>
        <path d="M639.48 658.44L339.22 672.67" stroke="hsl(35.80000000000001, 77%, 76.7%)" stroke-width="1.5"></path>
        <path d="M802.83 401.99L802.83 401.99" stroke="hsl(35.80000000000001, 77%, 76.7%)" stroke-width="1.5"></path>
        <path d="M802.83 401.99L643.18 495.12" stroke="hsl(35.80000000000001, 77%, 76.7%)" stroke-width="1.5"></path>
        <path d="M802.83 401.99L998.75 507.28" stroke="hsl(35.80000000000001, 77%, 76.7%)" stroke-width="1.5"></path>
        <path d="M802.83 401.99L816.6 662.85" stroke="hsl(35.80000000000001, 77%, 76.7%)" stroke-width="1.5"></path>
        <path d="M802.83 401.99L639.48 658.44" stroke="hsl(35.80000000000001, 77%, 76.7%)" stroke-width="1.5"></path>
        <path d="M802.83 401.99L1108.39 393.65" stroke="hsl(35.80000000000001, 77%, 76.7%)" stroke-width="1.5"></path>
        <path d="M816.6 662.85L816.6 662.85" stroke="hsl(35.80000000000001, 77%, 76.7%)" stroke-width="1.5"></path>
        <path d="M816.6 662.85L996 667.45" stroke="hsl(35.80000000000001, 77%, 76.7%)" stroke-width="1.5"></path>
        <path d="M998.75 507.28L998.75 507.28" stroke="hsl(35.80000000000001, 77%, 76.7%)" stroke-width="1.5"></path>
        <path d="M998.75 507.28L1114.75 512.65" stroke="hsl(35.80000000000001, 77%, 76.7%)" stroke-width="1.5"></path>
        <path d="M998.75 507.28L1108.39 393.65" stroke="hsl(35.80000000000001, 77%, 76.7%)" stroke-width="1.5"></path>
        <path d="M998.75 507.28L996 667.45" stroke="hsl(35.80000000000001, 77%, 76.7%)" stroke-width="1.5"></path>
        <path d="M996 667.45L996 667.45" stroke="hsl(35.80000000000001, 77%, 76.7%)" stroke-width="1.5"></path>
        <path d="M996 667.45L1089.72 672.89" stroke="hsl(35.80000000000001, 77%, 76.7%)" stroke-width="1.5"></path>
        <path d="M1136.56 74.34L1136.56 74.34" stroke="hsl(35.80000000000001, 77%, 76.7%)" stroke-width="1.5"></path>
        <path d="M1136.56 74.34L1121.85 231.32" stroke="hsl(35.80000000000001, 77%, 76.7%)" stroke-width="1.5"></path>
        <path d="M1136.56 74.34L1294.85 53.06" stroke="hsl(35.80000000000001, 77%, 76.7%)" stroke-width="1.5"></path>
        <path d="M1136.56 74.34L1311.32 215.96" stroke="hsl(35.80000000000001, 77%, 76.7%)" stroke-width="1.5"></path>
        <path d="M1121.85 231.32L1121.85 231.32" stroke="hsl(35.80000000000001, 77%, 76.7%)" stroke-width="1.5"></path>
        <path d="M1121.85 231.32L1108.39 393.65" stroke="hsl(35.80000000000001, 77%, 76.7%)" stroke-width="1.5"></path>
        <path d="M1121.85 231.32L1294.85 53.06" stroke="hsl(35.80000000000001, 77%, 76.7%)" stroke-width="1.5"></path>
        <path d="M1121.85 231.32L1304.81 405.31" stroke="hsl(35.80000000000001, 77%, 76.7%)" stroke-width="1.5"></path>
        <path d="M1108.39 393.65L1108.39 393.65" stroke="hsl(35.80000000000001, 77%, 76.7%)" stroke-width="1.5"></path>
        <path d="M1108.39 393.65L1114.75 512.65" stroke="hsl(35.80000000000001, 77%, 76.7%)" stroke-width="1.5"></path>
        <path d="M1114.75 512.65L1114.75 512.65" stroke="hsl(35.80000000000001, 77%, 76.7%)" stroke-width="1.5"></path>
        <path d="M1114.75 512.65L1089.72 672.89" stroke="hsl(35.80000000000001, 77%, 76.7%)" stroke-width="1.5"></path>
        <path d="M1114.75 512.65L996 667.45" stroke="hsl(35.80000000000001, 77%, 76.7%)" stroke-width="1.5"></path>
        <path d="M1089.72 672.89L1089.72 672.89" stroke="hsl(35.80000000000001, 77%, 76.7%)" stroke-width="1.5"></path>
        <path d="M1089.72 672.89L1240.71 684.16" stroke="hsl(35.80000000000001, 77%, 76.7%)" stroke-width="1.5"></path>
        <path d="M1089.72 672.89L998.75 507.28" stroke="hsl(35.80000000000001, 77%, 76.7%)" stroke-width="1.5"></path>
        <path d="M1089.72 672.89L816.6 662.85" stroke="hsl(35.80000000000001, 77%, 76.7%)" stroke-width="1.5"></path>
        <path d="M1089.72 672.89L1108.39 393.65" stroke="hsl(35.80000000000001, 77%, 76.7%)" stroke-width="1.5"></path>
        <path d="M1294.85 53.06L1294.85 53.06" stroke="hsl(35.80000000000001, 77%, 76.7%)" stroke-width="1.5"></path>
        <path d="M1294.85 53.06L1405.61 -62.85" stroke="hsl(35.80000000000001, 77%, 76.7%)" stroke-width="1.5"></path>
        <path d="M1304.81 405.31L1304.81 405.31" stroke="hsl(35.80000000000001, 77%, 76.7%)" stroke-width="1.5"></path>
        <path d="M1304.81 405.31L1389.08 397.57" stroke="hsl(35.80000000000001, 77%, 76.7%)" stroke-width="1.5"></path>
        <path d="M1304.81 405.31L1108.39 393.65" stroke="hsl(35.80000000000001, 77%, 76.7%)" stroke-width="1.5"></path>
        <path d="M1304.81 405.31L1422.78 232.15" stroke="hsl(35.80000000000001, 77%, 76.7%)" stroke-width="1.5"></path>
        <path d="M1240.71 684.16L1240.71 684.16" stroke="hsl(35.80000000000001, 77%, 76.7%)" stroke-width="1.5"></path>
        <path d="M1240.71 684.16L1441.16 707.34" stroke="hsl(35.80000000000001, 77%, 76.7%)" stroke-width="1.5"></path>
        <path d="M1240.71 684.16L1114.75 512.65" stroke="hsl(35.80000000000001, 77%, 76.7%)" stroke-width="1.5"></path>
        <path d="M1240.71 684.16L996 667.45" stroke="hsl(35.80000000000001, 77%, 76.7%)" stroke-width="1.5"></path>
        <path d="M1240.71 684.16L1414.24 488.76" stroke="hsl(35.80000000000001, 77%, 76.7%)" stroke-width="1.5"></path>
        <path d="M1405.61 -62.85L1405.61 -62.85" stroke="hsl(35.80000000000001, 77%, 76.7%)" stroke-width="1.5"></path>
        <path d="M1405.61 -62.85L1599.29 -81.43" stroke="hsl(35.80000000000001, 77%, 76.7%)" stroke-width="1.5"></path>
        <path d="M1422.78 232.15L1422.78 232.15" stroke="hsl(35.80000000000001, 77%, 76.7%)" stroke-width="1.5"></path>
        <path d="M1422.78 232.15L1389.08 397.57" stroke="hsl(35.80000000000001, 77%, 76.7%)" stroke-width="1.5"></path>
        <path d="M1422.78 232.15L1573.9 360.46" stroke="hsl(35.80000000000001, 77%, 76.7%)" stroke-width="1.5"></path>
        <path d="M1389.08 397.57L1389.08 397.57" stroke="hsl(35.80000000000001, 77%, 76.7%)" stroke-width="1.5"></path>
        <path d="M1441.16 707.34L1441.16 707.34" stroke="hsl(35.80000000000001, 77%, 76.7%)" stroke-width="1.5"></path>
        <path d="M1441.16 707.34L1553.27 697.33" stroke="hsl(35.80000000000001, 77%, 76.7%)" stroke-width="1.5"></path>
        <path d="M1441.16 707.34L1598.88 527.71" stroke="hsl(35.80000000000001, 77%, 76.7%)" stroke-width="1.5"></path>
        <path d="M1599.29 -81.43L1599.29 -81.43" stroke="hsl(35.80000000000001, 77%, 76.7%)" stroke-width="1.5"></path>
        <path d="M1599.29 -81.43L1605.2 102.61" stroke="hsl(35.80000000000001, 77%, 76.7%)" stroke-width="1.5"></path>
        <path d="M1605.2 102.61L1605.2 102.61" stroke="hsl(35.80000000000001, 77%, 76.7%)" stroke-width="1.5"></path>
        <path d="M1573.9 360.46L1573.9 360.46" stroke="hsl(35.80000000000001, 77%, 76.7%)" stroke-width="1.5"></path>
        <path d="M1573.9 360.46L1598.88 527.71" stroke="hsl(35.80000000000001, 77%, 76.7%)" stroke-width="1.5"></path>
        <path d="M1573.9 360.46L1389.08 397.57" stroke="hsl(35.80000000000001, 77%, 76.7%)" stroke-width="1.5"></path>
        <path d="M1598.88 527.71L1598.88 527.71" stroke="hsl(35.80000000000001, 77%, 76.7%)" stroke-width="1.5"></path>
        <path d="M1598.88 527.71L1553.27 697.33" stroke="hsl(35.80000000000001, 77%, 76.7%)" stroke-width="1.5"></path>
        <path d="M1598.88 527.71L1389.08 397.57" stroke="hsl(35.80000000000001, 77%, 76.7%)" stroke-width="1.5"></path>
        <path d="M1553.27 697.33L1553.27 697.33" stroke="hsl(35.80000000000001, 77%, 76.7%)" stroke-width="1.5"></path>
        <path d="M1553.27 697.33L1240.71 684.16" stroke="hsl(35.80000000000001, 77%, 76.7%)" stroke-width="1.5"></path>
        <path d="M1553.27 697.33L1573.9 360.46" stroke="hsl(35.80000000000001, 77%, 76.7%)" stroke-width="1.5"></path>
        <circle r="25" cx="643.18" cy="495.12" fill="url(&quot;#SvgjsRadialGradient1023&quot;)"></circle>
        <circle r="25" cx="798.7" cy="553.9" fill="url(&quot;#SvgjsRadialGradient1023&quot;)"></circle>
        <circle r="25" cx="1311.32" cy="215.96" fill="url(&quot;#SvgjsRadialGradient1023&quot;)"></circle>
        <circle r="25" cx="1389.65" cy="60.63" fill="url(&quot;#SvgjsRadialGradient1023&quot;)"></circle>
        <circle r="25" cx="1414.24" cy="488.76" fill="url(&quot;#SvgjsRadialGradient1023&quot;)"></circle>
        <circle r="25" cx="1559.23" cy="255.58" fill="url(&quot;#SvgjsRadialGradient1023&quot;)"></circle>
        <circle r="5" cx="-44.67" cy="525.05" fill="#f3d3a3"></circle>
        <circle r="5" cx="-48.06" cy="662.7" fill="#f3d3a3"></circle>
        <circle r="5" cx="52.77" cy="542.32" fill="#f3d3a3"></circle>
        <circle r="5" cx="85.93" cy="654.17" fill="#f3d3a3"></circle>
        <circle r="5" cx="247.6" cy="506.68" fill="#f3d3a3"></circle>
        <circle r="5" cx="365.09" cy="487.81" fill="#f3d3a3"></circle>
        <circle r="5" cx="339.22" cy="672.67" fill="#f3d3a3"></circle>
        <circle r="5" cx="492.19" cy="539.52" fill="#f3d3a3"></circle>
        <circle r="5" cx="499.85" cy="665.42" fill="#f3d3a3"></circle>
        <circle r="5" cx="639.48" cy="658.44" fill="#f3d3a3"></circle>
        <circle r="5" cx="802.83" cy="401.99" fill="#f3d3a3"></circle>
        <circle r="5" cx="816.6" cy="662.85" fill="#f3d3a3"></circle>
        <circle r="5" cx="998.75" cy="507.28" fill="#f3d3a3"></circle>
        <circle r="5" cx="996" cy="667.45" fill="#f3d3a3"></circle>
        <circle r="5" cx="1136.56" cy="74.34" fill="#f3d3a3"></circle>
        <circle r="5" cx="1121.85" cy="231.32" fill="#f3d3a3"></circle>
        <circle r="5" cx="1108.39" cy="393.65" fill="#f3d3a3"></circle>
        <circle r="5" cx="1114.75" cy="512.65" fill="#f3d3a3"></circle>
        <circle r="5" cx="1089.72" cy="672.89" fill="#f3d3a3"></circle>
        <circle r="5" cx="1294.85" cy="53.06" fill="#f3d3a3"></circle>
        <circle r="5" cx="1304.81" cy="405.31" fill="#f3d3a3"></circle>
        <circle r="5" cx="1240.71" cy="684.16" fill="#f3d3a3"></circle>
        <circle r="5" cx="1405.61" cy="-62.85" fill="#f3d3a3"></circle>
        <circle r="5" cx="1422.78" cy="232.15" fill="#f3d3a3"></circle>
        <circle r="5" cx="1389.08" cy="397.57" fill="#f3d3a3"></circle>
        <circle r="5" cx="1441.16" cy="707.34" fill="#f3d3a3"></circle>
        <circle r="5" cx="1599.29" cy="-81.43" fill="#f3d3a3"></circle>
        <circle r="5" cx="1605.2" cy="102.61" fill="#f3d3a3"></circle>
        <circle r="5" cx="1573.9" cy="360.46" fill="#f3d3a3"></circle>
        <circle r="5" cx="1598.88" cy="527.71" fill="#f3d3a3"></circle>
        <circle r="5" cx="1553.27" cy="697.33" fill="#f3d3a3"></circle>
    </g>
    <defs>
        <mask id="SvgjsMask1022">
            <rect width="1440" height="560" fill="#ffffff"></rect>
        </mask>
        <radialGradient id="SvgjsRadialGradient1023">
            <stop stop-color="#ffffff" offset="0.1"></stop>
            <stop stop-color="rgba(231, 166, 70, 0.6)" offset="0.2"></stop>
            <stop stop-color="rgba(231, 166, 70, 0)" offset="1"></stop>
        </radialGradient>
    </defs>
</svg>